<svg width="503" height="331" viewBox="0 0 503 331" fill="none" xmlns="http://www.w3.org/2000/svg">
<path d="M54.2172 330.254H39.1334V307.859H15.0838V330.254H0V273.34H15.0838V295.649H39.1334V273.34H54.2172V330.254Z" fill="#1D1D1B"/>
<path d="M113.223 309.047C113.223 312.078 111.799 313.36 108.023 313.36H80.1023V316.942C80.1023 317.493 80.2077 317.674 80.6086 318.044L82.0326 319.327C82.4439 319.698 82.6444 319.783 83.3616 319.783H95.9982C96.9159 319.783 97.5277 319.688 98.4454 319.413L108.635 316.201L113.424 324.924L105.882 328.591C102.317 330.33 100.175 330.796 95.6924 330.796H82.2435C76.9484 330.796 75.0075 329.969 72.2545 327.489L69.8073 325.285C66.5479 322.349 65.9362 321.066 65.9362 316.201V299.773C65.9362 294.908 66.5479 293.626 69.8073 290.69L72.2545 288.485C75.0075 286.005 76.9378 285.179 82.2435 285.179H96.9159C102.211 285.179 104.152 286.005 106.905 288.485L109.352 290.69C112.611 293.626 113.223 295.003 113.223 299.773V309.047ZM80.1023 303.726H99.2576V299.041C99.2576 298.49 99.1521 298.31 98.7513 297.939L97.3273 296.657C96.9159 296.286 96.7155 296.2 95.9982 296.2H83.3616C82.6444 296.2 82.4439 296.296 82.0326 296.657L80.6086 297.939C80.1972 298.31 80.1023 298.49 80.1023 299.041V303.726Z" fill="#1D1D1B"/>
<path d="M139.319 330.254H125.153V293.445C125.153 290.234 126.071 288.761 129.636 287.573L133.507 286.29C135.954 285.464 137.484 285.188 140.437 285.188H156.534C161.829 285.188 163.77 286.015 166.523 288.495L168.97 290.699C172.229 293.635 172.841 294.918 172.841 299.783V330.254H158.675V299.783C158.675 299.231 158.57 299.051 158.169 298.68L156.745 297.398C156.333 297.027 156.133 296.942 155.416 296.942H141.756C141.345 296.942 140.944 297.037 140.638 297.122L139.826 297.398C139.52 297.493 139.319 297.673 139.319 297.949V330.263V330.254Z" fill="#1D1D1B"/>
<path d="M232.048 322.539C232.048 325.75 231.13 327.223 227.565 328.411L223.694 329.693C221.246 330.52 219.717 330.796 216.764 330.796H200.15C194.855 330.796 192.914 329.969 190.161 327.489L187.714 325.285C184.455 322.349 183.843 321.066 183.843 316.201V299.773C183.843 294.908 184.455 293.626 187.714 290.69L190.161 288.485C192.914 286.005 194.845 285.179 200.15 285.179H210.951C213.399 285.179 214.823 285.454 217.27 286.186L217.882 286.366V266.812H232.048V322.529V322.539ZM217.882 298.671C217.882 298.3 217.681 298.12 217.375 298.025L214.116 297.103C213.81 297.008 213.304 296.923 212.892 296.923H201.279C200.562 296.923 200.361 297.018 199.95 297.379L198.526 298.661C198.114 299.032 198.02 299.212 198.02 299.764V316.192C198.02 316.743 198.125 316.923 198.526 317.294L199.95 318.577C200.361 318.947 200.562 319.033 201.279 319.033H215.445C215.856 319.033 216.257 318.938 216.563 318.852L217.375 318.577C217.681 318.482 217.882 318.301 217.882 318.025V298.652V298.671Z" fill="#1D1D1B"/>
<path d="M261.603 296.932C260.886 296.932 260.686 297.027 260.274 297.388L258.85 298.671C258.439 299.041 258.344 299.222 258.344 299.773V330.244H244.178V299.773C244.178 294.908 244.79 293.626 248.049 290.69L250.496 288.485C253.249 286.005 255.18 285.179 260.485 285.179H274.651V296.932H261.603Z" fill="#1D1D1B"/>
<path d="M301.043 330.254H286.877V296.932H279.746V285.73H297.066C300.22 285.73 301.043 286.651 301.043 289.036V330.254ZM297.889 267.468C300.642 267.468 301.254 268.2 301.254 270.404V277.749C301.254 279.953 300.642 280.685 297.889 280.685H289.535C286.782 280.685 286.17 279.953 286.17 277.749V267.468H297.889Z" fill="#1D1D1B"/>
<path d="M334.976 315.289L328.046 320.885C327.023 321.712 326.622 322.263 326.516 323.27L325.799 330.244H312.656V322.805C312.656 318.311 313.468 316.287 317.951 312.8L324.375 307.935L318.162 303.07C314.291 300.039 312.561 298.025 312.561 292.789V285.72H326.116L326.622 292.514C326.727 293.616 327.033 294.167 328.046 294.994L335.082 300.59L342.212 295.079C343.235 294.348 343.531 293.797 343.636 292.789L344.248 285.72H357.391V293.16C357.391 297.654 356.579 299.678 352.096 303.165L345.883 308.03L352.307 312.895C356.484 316.106 357.908 318.035 357.908 323.175V330.244H344.554L343.836 323.27C343.731 322.349 343.33 321.712 342.412 320.971L334.976 315.28V315.289Z" fill="#1D1D1B"/>
<path d="M370.186 267.287H373.223V289.16L377.569 287.25C380.808 285.796 382.221 285.521 385.565 285.521H397.906C401.851 285.521 403.465 285.977 405.691 287.982L408.117 290.167C410.448 292.267 410.849 293.445 410.849 296.542V319.783C410.849 322.881 410.448 324.068 408.117 326.159L405.691 328.344C403.465 330.349 401.851 330.805 397.906 330.805H384.552C380.913 330.805 379.489 330.529 376.462 329.437L373.223 328.164C370.692 327.166 370.186 326.254 370.186 323.878V267.287ZM373.223 323.783C373.223 324.876 373.424 325.152 374.742 325.693L377.274 326.691C379.9 327.689 381.219 328.145 384.151 328.145H397.706C400.543 328.145 401.756 327.784 403.17 326.501L405.701 324.22C407.526 322.577 407.821 322.035 407.821 319.479V296.79C407.821 294.234 407.515 293.692 405.701 292.048L403.17 289.768C401.756 288.495 400.543 288.124 397.706 288.124H385.765C382.928 288.124 381.926 288.4 378.983 289.673L374.637 291.583C373.424 292.134 373.223 292.4 373.223 293.493V323.745V323.783Z" fill="#6E4293"/>
<path d="M436.048 330.796C432.103 330.796 430.489 330.339 428.263 328.335L425.837 326.149C423.506 324.049 423.105 322.871 423.105 319.774V296.533C423.105 293.436 423.506 292.248 425.837 290.157L428.263 287.972C430.489 285.967 432.103 285.511 436.048 285.511H451.733C455.678 285.511 457.292 285.967 459.517 287.972L461.943 290.157C464.275 292.257 464.675 293.436 464.675 296.533V319.774C464.675 322.871 464.275 324.059 461.943 326.149L459.517 328.335C457.292 330.339 455.678 330.796 451.733 330.796H436.048ZM461.638 296.809C461.638 294.253 461.332 293.711 459.517 292.067L456.986 289.787C455.572 288.514 454.359 288.143 451.522 288.143H436.248C433.411 288.143 432.198 288.504 430.784 289.787L428.253 292.067C426.428 293.711 426.133 294.253 426.133 296.809V319.498C426.133 322.054 426.439 322.596 428.253 324.239L430.784 326.52C432.198 327.793 433.411 328.164 436.248 328.164H451.522C454.359 328.164 455.572 327.803 456.986 326.52L459.517 324.239C461.342 322.596 461.638 322.054 461.638 319.498V296.809Z" fill="#6E4293"/>
<path d="M472.871 286.053H481.574V274.661H484.611V286.053H501.509V288.419H484.611V319.489C484.611 322.045 484.917 322.586 486.732 324.23L489.263 326.51C490.677 327.784 491.89 328.154 494.727 328.154H502.817V330.796H494.527C490.582 330.796 488.968 330.339 486.742 328.335L484.316 326.149C481.985 324.049 481.584 322.871 481.584 319.774V288.428H472.882V286.062L472.871 286.053Z" fill="#6E4293"/>
<path d="M130.448 135.929C120.871 163.645 139.551 192.833 170.974 199.247L171.955 199.446L172.208 199.969C173.02 201.67 173.928 203.304 174.919 204.881C201.268 193.109 230.94 186.486 262.342 186.486C287.235 186.486 311.042 190.658 332.972 198.24C361.895 190.22 378.55 162.41 369.394 135.929L369.373 135.872C389.067 112.764 382.548 79.4232 355.281 63.7552L354.975 63.5747L354.954 63.2897C353.245 34.3575 324.713 12.77 292.784 16.2381L291.412 16.3901L290.811 15.82C268.586 -5.27335 231.267 -5.27335 209.032 15.82L208.43 16.3901L207.059 16.2381C175.13 12.7605 146.597 34.3575 144.889 63.2897L144.868 63.5747L144.562 63.7552C117.295 79.4137 110.776 112.764 130.469 135.872L130.448 135.929Z" fill="#1D1D1B"/>
<path d="M342.571 181.698C332.276 181.698 323.901 170.153 323.901 155.958C323.901 141.763 332.276 130.218 342.571 130.218C352.866 130.218 361.241 141.763 361.241 155.958C361.241 170.153 352.866 181.698 342.571 181.698Z" fill="white"/>
<path d="M342.571 133.107C350.946 133.107 358.024 143.568 358.024 155.958C358.024 168.348 350.946 178.809 342.571 178.809C334.195 178.809 327.118 168.348 327.118 155.958C327.118 143.568 334.195 133.107 342.571 133.107ZM342.571 127.33C330.483 127.33 320.694 140.147 320.694 155.958C320.694 171.769 330.493 184.586 342.571 184.586C354.648 184.586 364.447 171.769 364.447 155.958C364.447 140.147 354.648 127.33 342.571 127.33Z" fill="#1D1D1B"/>
<path d="M377.77 156.414H362.222V162.2H377.77V156.414Z" fill="#1D1D1B"/>
<path d="M380.41 165.929C384.474 164.413 386.403 160.217 384.72 156.556C383.037 152.896 378.379 151.158 374.315 152.674C370.252 154.19 368.322 158.387 370.005 162.047C371.688 165.707 376.347 167.445 380.41 165.929Z" fill="#1D1D1B"/>
<path d="M155.416 181.698C145.121 181.698 136.746 170.153 136.746 155.958C136.746 141.763 145.121 130.218 155.416 130.218C165.711 130.218 174.086 141.763 174.086 155.958C174.086 170.153 165.711 181.698 155.416 181.698Z" fill="white"/>
<path d="M155.416 133.107C163.791 133.107 170.869 143.568 170.869 155.958C170.869 168.348 163.791 178.809 155.416 178.809C147.041 178.809 139.963 168.348 139.963 155.958C139.963 143.568 147.041 133.107 155.416 133.107ZM155.416 127.33C143.328 127.33 133.539 140.147 133.539 155.958C133.539 171.769 143.338 184.586 155.416 184.586C167.493 184.586 177.293 171.769 177.293 155.958C177.293 140.147 167.493 127.33 155.416 127.33Z" fill="#1D1D1B"/>
<path d="M137.621 156.414H122.073V162.2H137.621V156.414Z" fill="#1D1D1B"/>
<path d="M122.474 152.129C118.075 152.129 114.51 155.34 114.51 159.303C114.51 163.265 118.075 166.476 122.474 166.476C126.873 166.476 130.438 163.265 130.438 159.303C130.438 155.34 126.873 152.129 122.474 152.129Z" fill="#1D1D1B"/>
<path d="M207.397 212.312C190.794 212.312 187.756 211.38 177.82 203.247L167.683 194.952C159.624 188.349 157.536 183.788 157.536 172.747V120.071C157.536 109.039 159.624 104.469 167.683 97.8562L177.809 89.5613C187.735 81.4375 190.773 80.5064 207.386 80.5064H294.324C310.937 80.5064 313.975 81.4375 323.901 89.5613L334.037 97.8562C342.096 104.46 344.185 109.03 344.185 120.061V172.738C344.185 183.778 342.096 188.349 334.037 194.943L323.901 203.238C313.964 211.371 310.926 212.302 294.324 212.302H207.386L207.397 212.312Z" fill="white"/>
<path d="M294.334 83.6989C310.515 83.6989 312.604 84.63 321.517 91.9272L331.643 100.222C338.383 105.742 340.63 109.391 340.63 120.061V172.738C340.63 183.417 338.383 187.056 331.653 192.567L321.517 200.862C312.604 208.159 310.515 209.09 294.334 209.09H207.397C191.227 209.09 189.138 208.159 180.214 200.862L170.078 192.567C163.337 187.047 161.101 183.408 161.101 172.738V120.061C161.101 109.391 163.348 105.752 170.078 100.232L180.214 91.9367C189.127 84.6396 191.205 83.7084 207.397 83.7084H294.334M294.334 77.2759H207.397C189.845 77.2759 185.952 78.5491 175.425 87.1669L165.289 95.4618C156.713 102.493 153.971 107.918 153.971 120.042V172.719C153.971 184.852 156.703 190.277 165.289 197.309L175.425 205.603C185.952 214.221 189.855 215.504 207.397 215.504H294.334C311.886 215.504 315.779 214.221 326.306 205.603L336.442 197.309C345.018 190.287 347.76 184.862 347.76 172.719V120.042C347.76 107.918 345.028 102.483 336.442 95.4618L326.306 87.1669C315.779 78.5491 311.876 77.2759 294.334 77.2759Z" fill="#1D1D1B"/>
<path d="M319.291 75.7936C317.614 74.606 315.884 73.4658 314.08 72.3636C313.236 71.8505 312.382 71.3469 311.517 70.8528C311.401 70.7863 311.285 70.7198 311.169 70.6533C310.325 70.1782 309.46 69.7032 308.595 69.2471C308.564 69.2281 308.521 69.2091 308.49 69.1901C308.374 69.1331 308.268 69.0666 308.152 69.0095H308.131C291.94 60.5817 271.803 55.5839 249.969 55.5839C228.134 55.5839 208.009 60.5817 191.807 69.0095H191.786C191.67 69.0666 191.564 69.1331 191.448 69.1901C191.406 69.2091 191.374 69.2281 191.343 69.2471C190.478 69.7032 189.613 70.1782 188.769 70.6533C188.653 70.7198 188.537 70.7863 188.421 70.8528C187.556 71.3469 186.701 71.8505 185.868 72.3541C184.075 73.4467 182.335 74.5964 180.668 75.7841C163.612 87.8606 153.095 104.374 153.095 122.598C153.095 125.354 153.359 128.071 153.834 130.741C177.472 116.555 211.605 107.624 249.6 107.624C287.594 107.624 322.403 116.726 346.062 131.159C346.579 128.356 346.874 125.506 346.874 122.598C346.874 104.384 336.358 87.8606 319.302 75.7841L319.291 75.7936Z" fill="#6E4293"/>
<path d="M346.052 134.057C345.419 134.057 344.796 133.886 344.248 133.563C320.24 118.921 285.738 110.522 249.589 110.522C213.441 110.522 179.571 118.769 155.595 133.154C154.688 133.696 153.528 133.791 152.526 133.392C151.524 132.993 150.817 132.166 150.648 131.197C150.131 128.261 149.867 125.363 149.867 122.608C149.867 104.108 160.089 86.6729 178.664 73.5228C180.415 72.2781 182.218 71.0904 184.033 69.9882C184.043 69.9882 184.054 69.9787 184.064 69.9692C184.929 69.4371 185.815 68.924 186.712 68.4109L187.06 68.2114C187.957 67.7078 188.832 67.2233 189.729 66.7482C189.729 66.7482 189.845 66.6817 189.855 66.6817L190.203 66.5011C190.277 66.4631 190.341 66.4346 190.414 66.4061C207.734 57.4367 228.324 52.6954 249.969 52.6954C271.614 52.6954 292.204 57.4367 309.534 66.4061C309.608 66.4441 309.692 66.4726 309.766 66.5106L310.104 66.6912C310.104 66.6912 310.241 66.7672 310.262 66.7767C311.116 67.2233 312.002 67.7078 312.878 68.2019L313.236 68.4109C314.112 68.9145 314.987 69.4276 315.842 69.9502C315.852 69.9502 315.873 69.9692 315.884 69.9787C317.719 71.0999 319.534 72.2971 321.274 73.5323C321.274 73.5323 321.295 73.5418 321.306 73.5513C339.86 86.7014 350.081 104.127 350.081 122.617C350.081 125.525 349.796 128.565 349.227 131.653C349.047 132.622 348.33 133.449 347.328 133.838C346.917 134 346.495 134.076 346.062 134.076L346.052 134.057ZM249.589 104.735C284.873 104.735 318.743 112.536 343.499 126.237C343.604 125.012 343.657 123.805 343.657 122.608C343.657 105.923 334.301 90.1029 317.308 78.0645C317.308 78.0645 317.287 78.055 317.276 78.0455C315.673 76.9053 313.996 75.8126 312.308 74.777C312.298 74.777 312.287 74.758 312.266 74.758C311.454 74.2639 310.631 73.7793 309.787 73.3042L309.45 73.1142C308.637 72.6581 307.804 72.2021 306.96 71.7555L306.834 71.689L306.707 71.6225C306.644 71.594 306.581 71.5655 306.517 71.537C290.126 63.0046 270.569 58.5009 249.969 58.5009C229.368 58.5009 209.812 63.0141 193.421 71.537C193.357 71.5655 193.294 71.6035 193.231 71.632L193.083 71.7175L192.967 71.784C192.144 72.2211 191.311 72.6771 190.499 73.1332L190.172 73.3232C189.338 73.7983 188.526 74.2734 187.725 74.7675L187.693 74.7865C185.995 75.8221 184.307 76.9338 182.672 78.093C165.679 90.1314 156.323 105.951 156.323 122.636C156.323 123.7 156.365 124.774 156.449 125.867C181.132 112.422 214.728 104.773 249.621 104.773L249.589 104.735Z" fill="#1D1D1B"/>
<path d="M223.092 141.668C221.5 140.233 220.276 139.777 217.523 139.777H205.593C202.851 139.777 201.616 140.233 200.024 141.668L198.146 143.359C196.195 145.117 195.899 145.772 195.899 148.699V163.217C195.899 166.144 196.195 166.799 198.146 168.557L200.024 170.248C201.616 171.683 202.84 172.139 205.593 172.139H217.523C220.265 172.139 221.5 171.683 223.092 170.248L224.97 168.557C226.921 166.799 227.206 166.144 227.206 163.217V148.699C227.206 145.772 226.921 145.117 224.97 143.359L223.092 141.668Z" fill="#1D1D1B"/>
<path d="M301.792 143.359L299.914 141.668C298.321 140.233 297.098 139.777 294.345 139.777H282.415C279.672 139.777 278.438 140.233 276.846 141.668L274.968 143.359C273.017 145.117 272.721 145.772 272.721 148.699V163.217C272.721 166.144 273.017 166.799 274.968 168.557L276.846 170.248C278.438 171.683 279.662 172.139 282.415 172.139H294.345C297.087 172.139 298.321 171.683 299.914 170.248L301.792 168.557C303.743 166.799 304.028 166.144 304.028 163.217V148.699C304.028 145.772 303.743 145.117 301.792 143.359Z" fill="#1D1D1B"/>
<path d="M230.592 215.523C231.468 216.255 232.29 217.053 233.05 217.936L233.83 218.839C242.448 228.892 259.283 228.892 267.901 218.839L268.681 217.936C269.43 217.062 270.253 216.255 271.139 215.523H230.603H230.592Z" fill="#1D1D1B"/>
</svg>
