<?xml version="1.0" encoding="UTF-8"?>
<svg id="Camada_1" data-name="Camada 1" xmlns="http://www.w3.org/2000/svg" version="1.1" viewBox="0 0 1164.95 164.56">
  <defs>
    <style>
      .cls-1 {
        fill: #1d1d1b;
      }

      .cls-1, .cls-2 {
        stroke-width: 0px;
      }

      .cls-2 {
        fill: #6e4292;
      }
    </style>
  </defs>
  <path class="cls-1" d="M125.61,163.15h-34.94v-57.61h-55.72v57.61H0V16.76h34.94v57.37h55.72V16.76h34.94v146.38Z"/>
  <path class="cls-1" d="M262.31,108.6c0,7.79-3.31,11.1-12.04,11.1h-64.69v9.21c0,1.42.24,1.89,1.18,2.84l3.3,3.3c.95.95,1.42,1.18,3.07,1.18h29.28c2.12,0,3.54-.23,5.66-.94l23.61-8.26,11.1,22.43-17.47,9.44c-8.26,4.48-13.22,5.67-23.61,5.67h-31.17c-12.28,0-16.76-2.12-23.14-8.5l-5.67-5.66c-7.56-7.56-8.97-10.86-8.97-23.37v-42.26c0-12.51,1.42-15.82,8.97-23.37l5.67-5.67c6.37-6.37,10.86-8.5,23.14-8.5h34c12.28,0,16.76,2.12,23.14,8.5l5.66,5.67c7.56,7.55,8.97,11.1,8.97,23.37v23.84ZM185.58,94.91h44.39v-12.04c0-1.42-.24-1.89-1.18-2.83l-3.31-3.31c-.94-.95-1.42-1.18-3.07-1.18h-29.28c-1.65,0-2.12.23-3.07,1.18l-3.3,3.31c-.95.94-1.18,1.41-1.18,2.83v12.04Z"/>
  <path class="cls-1" d="M322.76,163.15h-32.82v-94.68c0-8.26,2.13-12.04,10.39-15.11l8.97-3.3c5.66-2.12,9.21-2.83,16.05-2.83h37.3c12.28,0,16.76,2.12,23.14,8.5l5.67,5.67c7.56,7.55,8.97,10.86,8.97,23.37v78.38h-32.82v-78.38c0-1.42-.24-1.89-1.18-2.84l-3.31-3.3c-.94-.95-1.42-1.18-3.07-1.18h-31.64c-.95,0-1.89.23-2.6.47l-1.89.71c-.71.23-1.18.71-1.18,1.42v83.11Z"/>
  <path class="cls-1" d="M537.62,143.31c0,8.26-2.12,12.04-10.39,15.11l-8.97,3.3c-5.67,2.12-9.21,2.84-16.06,2.84h-38.48c-12.28,0-16.76-2.12-23.14-8.5l-5.67-5.66c-7.56-7.56-8.97-10.86-8.97-23.37v-42.26c0-12.51,1.42-15.82,8.97-23.37l5.67-5.67c6.37-6.37,10.86-8.5,23.14-8.5h25.03c5.67,0,8.97.71,14.64,2.6l1.42.47V0h32.82v143.31ZM504.8,81.93c0-.95-.47-1.42-1.18-1.65l-7.56-2.36c-.71-.23-1.89-.47-2.83-.47h-26.92c-1.65,0-2.12.23-3.07,1.18l-3.3,3.3c-.95.95-1.18,1.42-1.18,2.84v42.26c0,1.41.24,1.89,1.18,2.83l3.3,3.3c.95.95,1.42,1.18,3.07,1.18h32.82c.95,0,1.89-.24,2.6-.47l1.89-.71c.71-.23,1.18-.71,1.18-1.41v-49.82Z"/>
  <path class="cls-1" d="M606.1,77.44c-1.65,0-2.12.23-3.07,1.18l-3.3,3.3c-.95.95-1.18,1.42-1.18,2.84v78.38h-32.82v-78.38c0-12.51,1.42-15.82,8.97-23.37l5.67-5.67c6.37-6.37,10.86-8.5,23.14-8.5h32.82v30.22h-30.22Z"/>
  <path class="cls-1" d="M697.47,163.15h-32.82v-85.7h-16.52v-28.81h40.14c7.32,0,9.21,2.36,9.21,8.5v106.01ZM690.15,1.65c6.38,0,7.79,1.89,7.79,7.56v18.89c0,5.67-1.41,7.55-7.79,7.55h-19.36c-6.37,0-7.79-1.89-7.79-7.55V1.65h27.15Z"/>
  <path class="cls-1" d="M776.1,124.66l-16.05,14.4c-2.36,2.12-3.31,3.54-3.54,6.14l-1.65,17.94h-30.46v-19.13c0-11.57,1.89-16.76,12.28-25.73l14.87-12.51-14.4-12.51c-8.97-7.79-12.99-12.99-12.99-26.44v-18.18h31.4l1.18,17.47c.24,2.83.95,4.25,3.31,6.37l16.29,14.4,16.53-14.17c2.36-1.89,3.07-3.3,3.3-5.9l1.42-18.18h30.46v19.13c0,11.57-1.89,16.76-12.28,25.73l-14.4,12.51,14.87,12.51c9.68,8.26,12.99,13.22,12.99,26.44v18.18h-30.93l-1.65-17.94c-.24-2.36-1.18-4.01-3.31-5.91l-17.24-14.64Z"/>
  <path class="cls-2" d="M857.67,1.18h7.03v56.25l10.08-4.92c7.5-3.75,10.78-4.45,18.52-4.45h28.6c9.14,0,12.89,1.17,18.05,6.33l5.63,5.63c5.39,5.39,6.33,8.44,6.33,16.41v59.77c0,7.97-.94,11.02-6.33,16.41l-5.63,5.63c-5.16,5.16-8.91,6.33-18.05,6.33h-30.94c-8.44,0-11.72-.7-18.75-3.52l-7.5-3.28c-5.86-2.58-7.03-4.92-7.03-11.02V1.18ZM864.7,146.5c0,2.81.47,3.52,3.52,4.92l5.86,2.58c6.09,2.58,9.14,3.75,15.94,3.75h31.41c6.56,0,9.38-.94,12.66-4.22l5.86-5.86c4.22-4.22,4.92-5.63,4.92-12.19v-58.36c0-6.56-.7-7.97-4.92-12.19l-5.86-5.86c-3.28-3.28-6.09-4.22-12.66-4.22h-27.66c-6.56,0-8.91.7-15.7,3.98l-10.08,4.92c-2.81,1.41-3.28,2.11-3.28,4.92v77.82Z"/>
  <path class="cls-2" d="M1010.26,164.55c-9.14,0-12.89-1.17-18.05-6.33l-5.63-5.63c-5.39-5.39-6.33-8.44-6.33-16.41v-59.77c0-7.97.94-11.02,6.33-16.41l5.63-5.63c5.16-5.16,8.91-6.33,18.05-6.33h36.33c9.14,0,12.89,1.17,18.05,6.33l5.63,5.63c5.39,5.39,6.33,8.44,6.33,16.41v59.77c0,7.97-.94,11.02-6.33,16.41l-5.63,5.63c-5.16,5.16-8.91,6.33-18.05,6.33h-36.33ZM1069.56,77.12c0-6.56-.7-7.97-4.92-12.19l-5.86-5.86c-3.28-3.28-6.09-4.22-12.66-4.22h-35.39c-6.56,0-9.38.94-12.66,4.22l-5.86,5.86c-4.22,4.22-4.92,5.63-4.92,12.19v58.36c0,6.56.7,7.97,4.92,12.19l5.86,5.86c3.28,3.28,6.09,4.22,12.66,4.22h35.39c6.56,0,9.38-.94,12.66-4.22l5.86-5.86c4.22-4.22,4.92-5.63,4.92-12.19v-58.36Z"/>
  <path class="cls-2" d="M1095.57,49.47h20.16v-29.3h7.03v29.3h39.14v6.09h-39.14v79.93c0,6.56.7,7.97,4.92,12.19l5.86,5.86c3.28,3.28,6.09,4.22,12.66,4.22h18.75v6.8h-19.22c-9.14,0-12.89-1.17-18.05-6.33l-5.63-5.63c-5.39-5.39-6.33-8.44-6.33-16.41V55.56h-20.16v-6.09Z"/>
</svg>