<?xml version="1.0" encoding="UTF-8"?>
<svg id="Camada_1" data-name="Camada 1" xmlns="http://www.w3.org/2000/svg" version="1.1" viewBox="0 0 850.39 850.39">
  <defs>
    <style>
      .cls-1 {
        fill: #6e4293;
      }

      .cls-1, .cls-2, .cls-3 {
        stroke-width: 0px;
      }

      .cls-2 {
        fill: #1d1d1b;
      }

      .cls-3 {
        fill: #fff;
      }
    </style>
  </defs>
  <g>
    <path class="cls-2" d="M238.25,598.7h-14.3v-23.57h-22.8v23.57h-14.3v-59.9h14.3v23.48h22.8v-23.48h14.3v59.9Z"/>
    <path class="cls-2" d="M294.19,576.38c0,3.19-1.35,4.54-4.93,4.54h-26.47v3.77c0,.58.1.77.48,1.16l1.35,1.35c.39.39.58.48,1.26.48h11.98c.87,0,1.45-.1,2.32-.39l9.66-3.38,4.54,9.18-7.15,3.86c-3.38,1.83-5.41,2.32-9.66,2.32h-12.75c-5.02,0-6.86-.87-9.47-3.48l-2.32-2.32c-3.09-3.09-3.67-4.44-3.67-9.56v-17.29c0-5.12.58-6.47,3.67-9.56l2.32-2.32c2.61-2.61,4.44-3.48,9.47-3.48h13.91c5.02,0,6.86.87,9.47,3.48l2.32,2.32c3.09,3.09,3.67,4.54,3.67,9.56v9.76ZM262.79,570.78h18.16v-4.93c0-.58-.1-.77-.48-1.16l-1.35-1.35c-.39-.39-.58-.48-1.26-.48h-11.98c-.68,0-.87.1-1.26.48l-1.35,1.35c-.39.39-.48.58-.48,1.16v4.93Z"/>
    <path class="cls-2" d="M318.93,598.7h-13.43v-38.74c0-3.38.87-4.93,4.25-6.18l3.67-1.35c2.32-.87,3.77-1.16,6.57-1.16h15.26c5.02,0,6.86.87,9.47,3.48l2.32,2.32c3.09,3.09,3.67,4.44,3.67,9.56v32.07h-13.43v-32.07c0-.58-.1-.77-.48-1.16l-1.35-1.35c-.39-.39-.58-.48-1.26-.48h-12.95c-.39,0-.77.1-1.06.19l-.77.29c-.29.1-.48.29-.48.58v34.01Z"/>
    <path class="cls-2" d="M406.84,590.58c0,3.38-.87,4.93-4.25,6.18l-3.67,1.35c-2.32.87-3.77,1.16-6.57,1.16h-15.75c-5.02,0-6.86-.87-9.47-3.48l-2.32-2.32c-3.09-3.09-3.67-4.44-3.67-9.56v-17.29c0-5.12.58-6.47,3.67-9.56l2.32-2.32c2.61-2.61,4.44-3.48,9.47-3.48h10.24c2.32,0,3.67.29,5.99,1.06l.58.19v-20.58h13.43v58.64ZM393.41,565.46c0-.39-.19-.58-.48-.68l-3.09-.97c-.29-.1-.77-.19-1.16-.19h-11.01c-.68,0-.87.1-1.26.48l-1.35,1.35c-.39.39-.48.58-.48,1.16v17.29c0,.58.1.77.48,1.16l1.35,1.35c.39.39.58.48,1.26.48h13.43c.39,0,.77-.1,1.06-.19l.77-.29c.29-.1.48-.29.48-.58v-20.39Z"/>
    <path class="cls-2" d="M434.86,563.63c-.68,0-.87.1-1.26.48l-1.35,1.35c-.39.39-.48.58-.48,1.16v32.07h-13.43v-32.07c0-5.12.58-6.47,3.67-9.56l2.32-2.32c2.61-2.61,4.44-3.48,9.47-3.48h13.43v12.37h-12.37Z"/>
    <path class="cls-2" d="M472.25,598.7h-13.43v-35.07h-6.76v-11.79h16.42c2.99,0,3.77.97,3.77,3.48v43.38ZM469.26,532.62c2.61,0,3.19.77,3.19,3.09v7.73c0,2.32-.58,3.09-3.19,3.09h-7.92c-2.61,0-3.19-.77-3.19-3.09v-10.82h11.11Z"/>
    <path class="cls-2" d="M504.42,582.95l-6.57,5.89c-.97.87-1.35,1.45-1.45,2.51l-.68,7.34h-12.46v-7.83c0-4.73.77-6.86,5.02-10.53l6.09-5.12-5.89-5.12c-3.67-3.19-5.31-5.31-5.31-10.82v-7.44h12.85l.48,7.15c.1,1.16.39,1.74,1.35,2.61l6.67,5.89,6.76-5.8c.97-.77,1.25-1.35,1.35-2.41l.58-7.44h12.46v7.83c0,4.73-.77,6.86-5.02,10.53l-5.89,5.12,6.09,5.12c3.96,3.38,5.31,5.41,5.31,10.82v7.44h-12.66l-.68-7.34c-.1-.97-.48-1.64-1.35-2.42l-7.05-5.99Z"/>
    <path class="cls-1" d="M537.8,532.43h2.88v23.02l4.12-2.01c3.07-1.53,4.41-1.82,7.58-1.82h11.7c3.74,0,5.27.48,7.38,2.59l2.3,2.3c2.21,2.21,2.59,3.45,2.59,6.71v24.46c0,3.26-.38,4.51-2.59,6.71l-2.3,2.3c-2.11,2.11-3.64,2.59-7.38,2.59h-12.66c-3.45,0-4.8-.29-7.67-1.44l-3.07-1.34c-2.4-1.05-2.88-2.01-2.88-4.51v-59.56ZM540.68,591.89c0,1.15.19,1.44,1.44,2.01l2.4,1.05c2.49,1.05,3.74,1.53,6.52,1.53h12.85c2.69,0,3.84-.38,5.18-1.73l2.4-2.4c1.73-1.73,2.01-2.3,2.01-4.99v-23.88c0-2.69-.29-3.26-2.01-4.99l-2.4-2.4c-1.34-1.34-2.49-1.73-5.18-1.73h-11.32c-2.69,0-3.64.29-6.43,1.63l-4.12,2.01c-1.15.58-1.34.86-1.34,2.01v31.84Z"/>
    <path class="cls-1" d="M600.24,599.27c-3.74,0-5.27-.48-7.38-2.59l-2.3-2.3c-2.21-2.21-2.59-3.45-2.59-6.71v-24.46c0-3.26.38-4.51,2.59-6.71l2.3-2.3c2.11-2.11,3.64-2.59,7.38-2.59h14.87c3.74,0,5.27.48,7.38,2.59l2.3,2.3c2.21,2.21,2.59,3.45,2.59,6.71v24.46c0,3.26-.38,4.51-2.59,6.71l-2.3,2.3c-2.11,2.11-3.64,2.59-7.38,2.59h-14.87ZM624.5,563.5c0-2.69-.29-3.26-2.01-4.99l-2.4-2.4c-1.34-1.34-2.49-1.73-5.18-1.73h-14.48c-2.69,0-3.84.38-5.18,1.73l-2.4,2.4c-1.73,1.73-2.01,2.3-2.01,4.99v23.88c0,2.69.29,3.26,2.01,4.99l2.4,2.4c1.34,1.34,2.49,1.73,5.18,1.73h14.48c2.69,0,3.84-.38,5.18-1.73l2.4-2.4c1.73-1.73,2.01-2.3,2.01-4.99v-23.88Z"/>
    <path class="cls-1" d="M635.15,552.18h8.25v-11.99h2.88v11.99h16.02v2.49h-16.02v32.7c0,2.69.29,3.26,2.01,4.99l2.4,2.4c1.34,1.34,2.49,1.73,5.18,1.73h7.67v2.78h-7.86c-3.74,0-5.27-.48-7.38-2.59l-2.3-2.3c-2.21-2.21-2.59-3.45-2.59-6.71v-32.99h-8.25v-2.49Z"/>
  </g>
  <g>
    <path class="cls-2" d="M310.52,394.18c-9.08,29.17,8.63,59.89,38.42,66.64l.93.21.24.55c.77,1.79,1.63,3.51,2.57,5.17,24.98-12.39,53.11-19.36,82.88-19.36,23.6,0,46.17,4.39,66.96,12.37,27.42-8.44,43.21-37.71,34.53-65.58l-.02-.06c18.67-24.32,12.49-59.41-13.36-75.9l-.29-.19-.02-.3c-1.62-30.45-28.67-53.17-58.94-49.52l-1.3.16-.57-.6c-21.07-22.2-56.45-22.2-77.53,0l-.57.6-1.3-.16c-30.27-3.66-57.32,19.07-58.94,49.52l-.02.3-.29.19c-25.85,16.48-32.03,51.58-13.36,75.9l-.02.06Z"/>
    <g>
      <g>
        <path class="cls-3" d="M511.62,442.35c-9.76,0-17.7-12.15-17.7-27.09s7.94-27.09,17.7-27.09,17.7,12.15,17.7,27.09-7.94,27.09-17.7,27.09Z"/>
        <path class="cls-2" d="M511.62,391.21c7.94,0,14.65,11.01,14.65,24.05s-6.71,24.05-14.65,24.05-14.65-11.01-14.65-24.05,6.71-24.05,14.65-24.05M511.62,385.13c-11.46,0-20.74,13.49-20.74,30.13s9.29,30.13,20.74,30.13,20.74-13.49,20.74-30.13-9.29-30.13-20.74-30.13h0Z"/>
      </g>
      <g>
        <rect class="cls-2" x="530.25" y="415.74" width="14.74" height="6.09"/>
        <circle class="cls-2" cx="544.61" cy="418.78" r="7.55" transform="translate(-118.81 240.29) rotate(-22.5)"/>
      </g>
    </g>
    <g>
      <g>
        <path class="cls-3" d="M334.19,442.35c-9.76,0-17.7-12.15-17.7-27.09s7.94-27.09,17.7-27.09,17.7,12.15,17.7,27.09-7.94,27.09-17.7,27.09Z"/>
        <path class="cls-2" d="M334.19,391.21c7.94,0,14.65,11.01,14.65,24.05s-6.71,24.05-14.65,24.05-14.65-11.01-14.65-24.05,6.71-24.05,14.65-24.05M334.19,385.13c-11.46,0-20.74,13.49-20.74,30.13s9.29,30.13,20.74,30.13,20.74-13.49,20.74-30.13-9.29-30.13-20.74-30.13h0Z"/>
      </g>
      <g>
        <rect class="cls-2" x="302.58" y="415.74" width="14.74" height="6.09"/>
        <path class="cls-2" d="M302.96,411.23c-4.17,0-7.55,3.38-7.55,7.55s3.38,7.55,7.55,7.55,7.55-3.38,7.55-7.55-3.38-7.55-7.55-7.55Z"/>
      </g>
    </g>
    <g>
      <path class="cls-3" d="M383.47,474.57c-15.74,0-18.62-.98-28.04-9.54l-9.61-8.73c-7.64-6.95-9.62-11.75-9.62-23.37v-55.44c0-11.61,1.98-16.42,9.62-23.38l9.6-8.73c9.41-8.55,12.29-9.53,28.04-9.53h82.42c15.75,0,18.63.98,28.04,9.53l9.61,8.73c7.64,6.95,9.62,11.76,9.62,23.37v55.44c0,11.62-1.98,16.43-9.62,23.37l-9.61,8.73c-9.42,8.56-12.3,9.54-28.04,9.54h-82.42Z"/>
      <path class="cls-2" d="M465.89,339.21c15.34,0,17.32.98,25.77,8.66l9.6,8.73c6.39,5.81,8.52,9.65,8.52,20.88v55.44c0,11.24-2.13,15.07-8.51,20.87l-9.61,8.73c-8.45,7.68-10.43,8.66-25.77,8.66h-82.42c-15.33,0-17.31-.98-25.77-8.66l-9.61-8.73c-6.39-5.81-8.51-9.64-8.51-20.87v-55.44c0-11.23,2.13-15.06,8.51-20.87l9.61-8.73c8.45-7.68,10.42-8.66,25.77-8.66h82.42M465.89,332.45h-82.42c-16.64,0-20.33,1.34-30.31,10.41l-9.61,8.73c-8.13,7.4-10.73,13.11-10.73,25.87v55.44c0,12.77,2.59,18.48,10.73,25.88l9.61,8.73c9.98,9.07,13.68,10.42,30.31,10.42h82.42c16.64,0,20.33-1.35,30.31-10.42l9.61-8.73c8.13-7.39,10.73-13.1,10.73-25.88v-55.44c0-12.76-2.59-18.48-10.73-25.87l-9.61-8.73c-9.98-9.07-13.68-10.41-30.31-10.41h0Z"/>
    </g>
    <g>
      <path class="cls-1" d="M489.55,330.89s0,0,0,0c-1.59-1.25-3.23-2.45-4.94-3.61,0,0,0,0,0,0-.8-.54-1.61-1.07-2.43-1.59-.11-.07-.22-.14-.33-.21-.8-.5-1.62-1-2.44-1.48-.03-.02-.07-.04-.1-.06-.11-.06-.21-.13-.32-.19h-.02c-15.35-8.87-34.44-14.13-55.14-14.13s-39.78,5.26-55.14,14.13h-.02c-.11.06-.21.13-.32.19-.04.02-.07.04-.1.06-.82.48-1.64.98-2.44,1.48-.11.07-.22.14-.33.21-.82.52-1.63,1.05-2.42,1.58,0,0,0,0,0,0-1.7,1.15-3.35,2.36-4.93,3.61,0,0,0,0,0,0-16.17,12.71-26.14,30.09-26.14,49.27,0,2.9.25,5.76.7,8.57,22.41-14.93,54.77-24.33,90.79-24.33s69.02,9.58,91.45,24.77c.49-2.95.77-5.95.77-9.01,0-19.17-9.97-36.56-26.14-49.27Z"/>
      <path class="cls-2" d="M514.92,392.21c-.6,0-1.19-.18-1.71-.52-22.76-15.41-55.47-24.25-89.74-24.25s-66.38,8.68-89.11,23.82c-.86.57-1.96.67-2.91.25-.95-.42-1.62-1.29-1.78-2.31-.49-3.09-.74-6.14-.74-9.04,0-19.47,9.69-37.82,27.3-51.66,1.66-1.31,3.37-2.56,5.09-3.72.01,0,.02-.01.03-.02.82-.56,1.66-1.1,2.51-1.64l.33-.21c.85-.53,1.68-1.04,2.53-1.54,0,0,.11-.07.12-.07l.33-.19c.07-.04.13-.07.2-.1,16.42-9.44,35.94-14.43,56.46-14.43s40.04,4.99,56.47,14.43c.07.04.15.07.22.11l.32.19s.13.08.15.09c.81.47,1.65.98,2.48,1.5l.34.22c.83.53,1.66,1.07,2.47,1.62.01,0,.03.02.04.03,1.74,1.18,3.46,2.44,5.11,3.74,0,0,.02.01.03.02,17.59,13.84,27.28,32.18,27.28,51.64,0,3.06-.27,6.26-.81,9.51-.17,1.02-.85,1.89-1.8,2.3-.39.17-.79.25-1.2.25ZM423.47,361.35c33.45,0,65.56,8.21,89.03,22.63.1-1.29.15-2.56.15-3.82,0-17.56-8.87-34.21-24.98-46.88,0,0-.02-.01-.03-.02-1.52-1.2-3.11-2.35-4.71-3.44-.01,0-.02-.02-.04-.02h0c-.77-.52-1.55-1.03-2.35-1.53l-.32-.2c-.77-.48-1.56-.96-2.36-1.43,0,0-.12-.07-.12-.07l-.12-.07c-.06-.03-.12-.06-.18-.09-15.54-8.98-34.08-13.72-53.61-13.72s-38.07,4.75-53.61,13.72c-.06.03-.12.07-.18.1l-.14.09s-.11.07-.11.07c-.78.46-1.57.94-2.34,1.42l-.31.2c-.79.5-1.56,1-2.32,1.52l-.03.02c-1.61,1.09-3.21,2.26-4.76,3.48-16.11,12.67-24.98,29.32-24.98,46.88,0,1.12.04,2.25.12,3.4,23.4-14.15,55.25-22.2,88.33-22.2Z"/>
    </g>
    <g>
      <path class="cls-2" d="M398.35,400.22c-1.51-1.51-2.67-1.99-5.28-1.99h-11.31c-2.6,0-3.77.48-5.28,1.99l-1.78,1.78c-1.85,1.85-2.13,2.54-2.13,5.62v15.28c0,3.08.28,3.77,2.13,5.62l1.78,1.78c1.51,1.51,2.67,1.99,5.28,1.99h11.31c2.6,0,3.77-.48,5.28-1.99l1.78-1.78c1.85-1.85,2.12-2.54,2.12-5.62v-15.28c0-3.08-.27-3.77-2.12-5.62l-1.78-1.78Z"/>
      <path class="cls-2" d="M472.96,402l-1.78-1.78c-1.51-1.51-2.67-1.99-5.28-1.99h-11.31c-2.6,0-3.77.48-5.28,1.99l-1.78,1.78c-1.85,1.85-2.13,2.54-2.13,5.62v15.28c0,3.08.28,3.77,2.13,5.62l1.78,1.78c1.51,1.51,2.67,1.99,5.28,1.99h11.31c2.6,0,3.77-.48,5.28-1.99l1.78-1.78c1.85-1.85,2.12-2.54,2.12-5.62v-15.28c0-3.08-.27-3.77-2.12-5.62Z"/>
    </g>
    <path class="cls-2" d="M405.46,477.95c.83.77,1.61,1.61,2.33,2.54l.74.95c8.17,10.58,24.13,10.58,32.3,0l.74-.95c.71-.92,1.49-1.77,2.33-2.54h-38.43Z"/>
  </g>
</svg>