<?xml version="1.0" encoding="UTF-8"?>
<svg id="Camada_1" data-name="Camada 1" xmlns="http://www.w3.org/2000/svg" version="1.1" viewBox="0 0 627.48 582.27">
  <defs>
    <style>
      .cls-1 {
        fill: #1d1d1b;
      }

      .cls-1, .cls-2, .cls-3 {
        stroke-width: 0px;
      }

      .cls-2 {
        fill: #6e4292;
      }

      .cls-3 {
        fill: #fff;
      }
    </style>
  </defs>
  <path class="cls-1" d="M36.93,349.62c-22.2,71.28,21.09,146.35,93.9,162.86l2.27.51.58,1.35c1.89,4.37,4,8.59,6.29,12.64,61.04-30.27,129.8-47.32,202.55-47.32,57.68,0,112.84,10.72,163.64,30.24,67-20.63,105.6-92.16,84.39-160.27l-.05-.15c45.62-59.44,30.52-145.2-32.66-185.49l-.72-.46-.04-.74c-3.96-74.42-70.06-129.95-144.04-121.01l-3.18.38-1.38-1.46c-51.5-54.26-137.97-54.26-189.47,0l-1.38,1.46-3.18-.38c-73.98-8.93-140.08,46.6-144.04,121.01l-.04.74-.72.46C6.46,204.27-8.64,290.03,36.98,349.47l-.05.15Z"/>
  <g>
    <g>
      <path class="cls-3" d="M528.41,467.36c-23.85,0-43.25-29.7-43.25-66.21s19.4-66.21,43.25-66.21,43.25,29.7,43.25,66.21-19.4,66.21-43.25,66.21Z"/>
      <path class="cls-1" d="M528.41,342.39c19.41,0,35.81,26.91,35.81,58.77s-16.4,58.77-35.81,58.77-35.81-26.91-35.81-58.77,16.4-58.77,35.81-58.77M528.41,327.51c-28,0-50.69,32.97-50.69,73.65s22.7,73.65,50.69,73.65,50.69-32.97,50.69-73.65-22.7-73.65-50.69-73.65h0Z"/>
    </g>
    <g>
      <rect class="cls-1" x="573.92" y="402.32" width="36.02" height="14.88"/>
      <circle class="cls-1" cx="609.02" cy="409.76" r="18.46" transform="translate(-110.45 264.25) rotate(-22.5)"/>
    </g>
  </g>
  <g>
    <g>
      <path class="cls-3" d="M94.79,467.36c-23.85,0-43.25-29.7-43.25-66.21s19.4-66.21,43.25-66.21,43.25,29.7,43.25,66.21-19.4,66.21-43.25,66.21Z"/>
      <path class="cls-1" d="M94.79,342.39c19.41,0,35.81,26.91,35.81,58.77s-16.4,58.77-35.81,58.77-35.81-26.91-35.81-58.77,16.4-58.77,35.81-58.77M94.79,327.51c-28,0-50.69,32.97-50.69,73.65s22.7,73.65,50.69,73.65,50.69-32.97,50.69-73.65-22.7-73.65-50.69-73.65h0Z"/>
    </g>
    <g>
      <rect class="cls-1" x="17.54" y="402.32" width="36.02" height="14.88"/>
      <path class="cls-1" d="M18.46,391.3c-10.19,0-18.46,8.27-18.46,18.46s8.27,18.46,18.46,18.46,18.46-8.27,18.46-18.46-8.27-18.46-18.46-18.46Z"/>
    </g>
  </g>
  <g>
    <path class="cls-3" d="M215.21,546.09c-38.46,0-45.51-2.4-68.52-23.32l-23.48-21.34c-18.68-16.98-23.51-28.72-23.51-57.12v-135.49c0-28.38,4.83-40.13,23.51-57.13l23.47-21.34c23-20.91,30.04-23.3,68.52-23.3h201.43c38.48,0,45.53,2.4,68.52,23.3l23.48,21.34c18.67,16.99,23.51,28.74,23.51,57.12v135.49c0,28.4-4.83,40.15-23.51,57.12l-23.48,21.34c-23.02,20.92-30.06,23.32-68.52,23.32h-201.43Z"/>
    <path class="cls-1" d="M416.64,215.3c20.38,0,30.26.92,37.74,3.5,7.01,2.42,13.37,6.88,25.22,17.65l23.47,21.34c15.61,14.21,20.81,23.57,20.81,51.02v135.49c0,27.46-5.19,36.82-20.8,51.01l-23.48,21.34c-11.86,10.78-18.23,15.24-25.23,17.66-7.49,2.59-17.37,3.51-37.74,3.51h-201.43c-20.37,0-30.25-.92-37.74-3.51-7.01-2.42-13.37-6.88-25.23-17.66l-23.48-21.34c-15.61-14.19-20.81-23.55-20.81-51.01v-135.49c0-27.44,5.2-36.81,20.81-51.01l23.48-21.34c11.85-10.77,18.22-15.23,25.22-17.65,7.49-2.59,17.36-3.5,37.74-3.5h201.43M416.64,198.78h-201.43c-40.65,0-49.69,3.28-74.08,25.45l-23.48,21.34c-19.87,18.08-26.21,32.04-26.21,63.23v135.49c0,31.21,6.34,45.17,26.21,63.24l23.48,21.34c24.39,22.17,33.42,25.47,74.08,25.47h201.43c40.66,0,49.69-3.3,74.08-25.47l23.48-21.34c19.87-18.06,26.21-32.02,26.21-63.24v-135.49c0-31.19-6.34-45.15-26.21-63.23l-23.48-21.34c-24.39-22.17-33.42-25.45-74.08-25.45h0Z"/>
  </g>
  <g>
    <path class="cls-2" d="M474.47,194.96s0,0-.01,0c-3.88-3.05-7.9-6-12.07-8.82,0,0,0,0,0,0-1.95-1.32-3.93-2.61-5.94-3.88-.27-.17-.53-.34-.8-.51-1.97-1.23-3.95-2.44-5.97-3.62-.08-.05-.16-.1-.24-.14-.26-.15-.51-.31-.77-.46h-.05c-37.52-21.68-84.17-34.54-134.75-34.54s-97.22,12.86-134.75,34.54h-.05c-.26.15-.51.31-.77.46-.09.05-.17.1-.26.15-2.02,1.18-4,2.38-5.96,3.61-.27.17-.54.34-.81.51-2,1.27-3.98,2.56-5.92,3.87,0,0-.01,0-.02.01-4.16,2.82-8.18,5.76-12.06,8.81,0,0-.01.01-.02.02-39.51,31.07-63.87,73.55-63.87,120.41,0,7.09.62,14.07,1.71,20.94,54.77-36.49,133.85-59.46,221.89-59.46s168.67,23.42,223.49,60.54c1.2-7.21,1.89-14.55,1.89-22.02,0-46.86-24.37-89.34-63.88-120.41Z"/>
    <path class="cls-1" d="M536.46,344.83c-1.46,0-2.92-.43-4.17-1.28-55.63-37.66-135.57-59.26-219.32-59.26s-162.23,21.22-217.76,58.21c-2.11,1.4-4.8,1.64-7.11.62-2.32-1.02-3.96-3.15-4.36-5.65-1.19-7.56-1.8-14.99-1.8-22.1,0-47.58,23.69-92.42,66.71-126.25,4.06-3.19,8.24-6.25,12.45-9.1.03-.02.05-.03.08-.05,2.01-1.37,4.06-2.7,6.13-4.01l.8-.51c2.07-1.29,4.11-2.54,6.19-3.75.01,0,.28-.17.29-.17l.8-.48c.16-.09.32-.18.49-.26,40.14-23.07,87.84-35.26,137.98-35.26s97.86,12.19,138,35.27c.18.09.36.18.53.28l.77.46s.33.19.37.22c1.98,1.15,4.03,2.4,6.06,3.68l.83.53c2.04,1.29,4.06,2.6,6.04,3.95.03.02.07.04.1.06,4.25,2.88,8.45,5.95,12.49,9.13.02.02.05.03.07.06,42.99,33.83,66.66,78.65,66.66,126.21,0,7.47-.67,15.29-1.99,23.23-.41,2.5-2.07,4.62-4.4,5.62-.94.4-1.94.6-2.93.6ZM312.97,269.41c81.74,0,160.22,20.05,217.57,55.31.25-3.15.37-6.25.37-9.35,0-42.92-21.68-83.61-61.04-114.57-.02-.02-.05-.03-.07-.05-3.72-2.92-7.59-5.75-11.51-8.41-.03-.02-.06-.04-.09-.06h0c-1.88-1.28-3.8-2.52-5.74-3.75l-.79-.5c-1.88-1.18-3.8-2.35-5.76-3.49-.02-.01-.28-.17-.3-.18l-.29-.18c-.15-.07-.29-.15-.44-.23-37.98-21.94-83.29-33.54-131.03-33.54s-93.04,11.6-131.02,33.54c-.15.08-.3.16-.45.24l-.35.21s-.27.16-.28.16c-1.91,1.12-3.83,2.29-5.73,3.48l-.77.49c-1.93,1.22-3.82,2.45-5.68,3.71l-.08.05c-3.94,2.67-7.85,5.53-11.64,8.51-39.38,30.97-61.05,71.65-61.05,114.57,0,2.75.1,5.51.29,8.3,57.18-34.59,135.03-54.26,215.86-54.26Z"/>
  </g>
  <g>
    <path class="cls-1" d="M251.58,364.4c-3.69-3.68-6.53-4.86-12.89-4.86h-27.63c-6.36,0-9.21,1.18-12.89,4.86l-4.35,4.35c-4.52,4.52-5.19,6.2-5.19,13.73v37.34c0,7.54.67,9.21,5.19,13.73l4.35,4.35c3.68,3.68,6.53,4.86,12.89,4.86h27.63c6.36,0,9.21-1.18,12.89-4.86l4.35-4.35c4.52-4.52,5.19-6.2,5.19-13.73v-37.34c0-7.54-.67-9.21-5.19-13.73l-4.35-4.35Z"/>
    <path class="cls-1" d="M433.91,368.75l-4.35-4.35c-3.69-3.68-6.53-4.86-12.89-4.86h-27.63c-6.36,0-9.21,1.18-12.89,4.86l-4.35,4.35c-4.52,4.52-5.19,6.2-5.19,13.73v37.34c0,7.54.67,9.21,5.19,13.73l4.35,4.35c3.68,3.68,6.53,4.86,12.89,4.86h27.63c6.36,0,9.21-1.18,12.89-4.86l4.35-4.35c4.52-4.52,5.19-6.2,5.19-13.73v-37.34c0-7.54-.67-9.21-5.19-13.73Z"/>
  </g>
  <path class="cls-1" d="M268.97,554.35c2.04,1.88,3.95,3.94,5.69,6.2l1.8,2.33c19.96,25.86,58.98,25.86,78.94,0l1.8-2.33c1.74-2.25,3.65-4.32,5.69-6.2h-93.91Z"/>
</svg>